<svg width="40" height="32" viewBox="0 0 40 32" fill="none" xmlns="http://www.w3.org/2000/svg">
<path d="M12.9945 32C27.8523 32 35.9823 19.6789 35.9823 9.01218C35.9823 8.66555 35.9823 8.31892 35.9665 7.97229C37.5421 6.82212 38.9129 5.40409 40 3.79699C38.519 4.44298 36.9591 4.88414 35.3521 5.07321C37.0379 4.06484 38.2984 2.47349 38.8971 0.598546C37.3058 1.5439 35.5726 2.20564 33.7607 2.55227C30.7041 -0.709192 25.5834 -0.86675 22.3219 2.20564C20.2264 4.17513 19.3283 7.12148 19.9901 9.92602C13.5144 9.59515 7.4484 6.52275 3.35187 1.48087C1.20907 5.16775 2.29623 9.89451 5.85706 12.2579C4.56508 12.2264 3.32036 11.8798 2.18594 11.2495V11.3441C2.18594 15.1885 4.89595 18.4972 8.67736 19.2693C7.47991 19.6001 6.2352 19.6474 5.022 19.4111C6.07764 22.704 9.11852 24.9571 12.5691 25.0201C9.70149 27.2732 6.17217 28.4864 2.53257 28.4864C1.88658 28.4864 1.24059 28.4392 0.610352 28.3762C4.31298 30.7553 8.59858 32 12.9945 32Z" fill="#02031F"/>
</svg>
